<svg width="30" height="30" viewBox="0 0 30 30" fill="none" xmlns="http://www.w3.org/2000/svg">
<path id="Vector" d="M15 0L11.8333 9.66667C11.6712 10.1687 11.3922 10.6251 11.0193 10.9983C10.6464 11.3714 10.1902 11.6508 9.68833 11.8133L0 15L9.66667 18.1667C10.1687 18.3288 10.6251 18.6078 10.9983 18.9807C11.3714 19.3536 11.6508 19.8098 11.8133 20.3117L15 30L18.1667 20.3333C18.3288 19.8313 18.6078 19.3749 18.9807 19.0017C19.3536 18.6286 19.8098 18.3492 20.3117 18.1867L30 15L20.3333 11.8333C19.8313 11.6712 19.3749 11.3922 19.0017 11.0193C18.6286 10.6464 18.3492 10.1902 18.1867 9.68833L15 0Z" fill="white"/>
</svg>
