<svg xmlns="http://www.w3.org/2000/svg" width="96" height="96" viewBox="0 0 96 96" fill="none">
  <path d="M12 28H84C85.0609 28 86.0783 27.5786 86.8284 26.8284C87.5786 26.0783 88 25.0609 88 24C88 22.9391 87.5786 21.9217 86.8284 21.1716C86.0783 20.4214 85.0609 20 84 20H12C10.9391 20 9.92172 20.4214 9.17157 21.1716C8.42143 21.9217 8 22.9391 8 24C8 25.0609 8.42143 26.0783 9.17157 26.8284C9.92172 27.5786 10.9391 28 12 28ZM84 44H12C10.9391 44 9.92172 44.4214 9.17157 45.1716C8.42143 45.9217 8 46.9391 8 48C8 49.0609 8.42143 50.0783 9.17157 50.8284C9.92172 51.5786 10.9391 52 12 52H84C85.0609 52 86.0783 51.5786 86.8284 50.8284C87.5786 50.0783 88 49.0609 88 48C88 46.9391 87.5786 45.9217 86.8284 45.1716C86.0783 44.4214 85.0609 44 84 44ZM84 68H12C10.9391 68 9.92172 68.4214 9.17157 69.1716C8.42143 69.9217 8 70.9391 8 72C8 73.0609 8.42143 74.0783 9.17157 74.8284C9.92172 75.5786 10.9391 76 12 76H84C85.0609 76 86.0783 75.5786 86.8284 74.8284C87.5786 74.0783 88 73.0609 88 72C88 70.9391 87.5786 69.9217 86.8284 69.1716C86.0783 68.4214 85.0609 68 84 68Z" fill="white"/>
</svg>