<svg
  aria-hidden="true"
  style="position: absolute; width: 0; height: 0; overflow: hidden"
  version="1.1"
  xmlns="http://www.w3.org/2000/svg"
  xmlns:xlink="http://www.w3.org/1999/xlink"
>
  <defs>
    <symbol id="icon-tel" viewBox="0 0 32 32">
      <path
        d="M27.187 22.476c-0.053-0.33-0.26-0.612-0.571-0.78l-4.625-2.724c-0.185-0.095-0.4-0.144-0.62-0.144-0.384 0-0.751 0.146-1.006 0.401l-1.354 1.355c-0.058 0.055-0.247 0.135-0.304 0.138-0.016-0.001-1.575-0.114-4.447-2.985-2.866-2.866-2.988-4.43-2.989-4.43 0.002-0.080 0.080-0.268 0.136-0.326l1.155-1.154c0.407-0.408 0.529-1.084 0.287-1.607l-2.55-4.798c-0.185-0.381-0.545-0.617-0.945-0.617-0.283 0-0.555 0.117-0.768 0.33l-3.147 3.14c-0.302 0.3-0.562 0.825-0.618 1.247-0.028 0.202-0.586 5.022 6.022 11.631 5.61 5.609 9.984 6.045 11.192 6.045v0c0.26 0 0.411-0.019 0.44-0.023 0.421-0.056 0.945-0.316 1.245-0.616l3.145-3.144c0.257-0.258 0.374-0.599 0.32-0.938z"
      ></path>
    </symbol>
    <symbol id="icon-message" viewBox="0 0 32 32">
      <path
        d="M2.667 8c0-1.473 1.194-2.667 2.667-2.667v0h21.333c1.473 0 2.667 1.194 2.667 2.667v0 14.667c0 1.473-1.194 2.667-2.667 2.667v0h-6.115l-3.609 3.609c-0.241 0.241-0.575 0.39-0.943 0.39s-0.701-0.149-0.943-0.39l-3.609-3.609h-6.115c-1.473 0-2.667-1.194-2.667-2.667v0-14.667zM26.667 8h-21.333v14.667h6.667c0.368 0 0.701 0.149 0.943 0.391l3.057 3.057 3.057-3.057c0.241-0.241 0.575-0.391 0.943-0.391h6.667v-14.667zM8 12.667c0-0.736 0.597-1.333 1.333-1.333v0h13.333c0.736 0 1.333 0.597 1.333 1.333s-0.597 1.333-1.333 1.333v0h-13.333c-0.736 0-1.333-0.597-1.333-1.333v0zM8 18c0-0.736 0.597-1.333 1.333-1.333v0h8c0.736 0 1.333 0.597 1.333 1.333s-0.597 1.333-1.333 1.333v0h-8c-0.736 0-1.333-0.597-1.333-1.333v0z"
      ></path>
    </symbol>
    <symbol id="icon-user" viewBox="0 0 32 32">
      <path
        d="M28 26.667c0 1.473-1.194 2.667-2.667 2.667v0h-18.667c-1.473 0-2.667-1.194-2.667-2.667v0c0-4.418 3.582-8 8-8v0h8c4.418 0 8 3.582 8 8v0zM16 16c3.682 0 6.667-2.985 6.667-6.667s-2.985-6.667-6.667-6.667c-3.682 0-6.667 2.985-6.667 6.667v0c0 3.682 2.985 6.667 6.667 6.667v0z"
      ></path>
    </symbol>
    <symbol id="icon-email" viewBox="0 0 32 32">
      <path
        d="M28 9.843v-3.177h-24v3.176l12 6.001 12-6zM28 12.825l-12 6-12-6.001v12.509h24v-12.509zM4 4h24c1.473 0 2.667 1.194 2.667 2.667v18.667c0 1.473-1.194 2.667-2.667 2.667h-24c-1.473 0-2.667-1.194-2.667-2.667v-18.667c0-1.473 1.194-2.667 2.667-2.667z"
      ></path>
    </symbol>
    <symbol id="icon-chevron-down" viewBox="0 0 32 32">
      <path
        d="M29.292 10.954l-12.615 12.738c-0.369 0.369-0.985 0.369-1.354 0l-12.615-12.738c-0.369-0.369-0.369-0.985 0-1.354l1.354-1.354c0.369-0.369 0.985-0.369 1.354 0l9.908 10.031c0.369 0.369 0.985 0.369 1.354 0l9.908-9.969c0.369-0.369 0.985-0.369 1.354 0l1.354 1.354c0.308 0.369 0.308 0.923 0 1.292z"
      ></path>
    </symbol>
    <symbol id="icon-chevron-up" viewBox="0 0 32 32">
      <path
        d="M2.708 21.046l12.615-12.738c0.369-0.369 0.985-0.369 1.354 0l12.615 12.738c0.369 0.369 0.369 0.985 0 1.354l-1.354 1.354c-0.369 0.369-0.985 0.369-1.354 0l-9.908-10.092c-0.369-0.369-0.985-0.369-1.354 0l-9.908 10.031c-0.369 0.369-0.985 0.369-1.354 0l-1.354-1.354c-0.308-0.369-0.308-0.923 0-1.292z"
      ></path>
    </symbol>
    <symbol id="icon-arrow-left" viewBox="0 0 51 32">
      <path
        d="M19.155 0l-19.155 16.154 19.155 15.771v-12.77h31.926v-6.385h-31.926v-12.77z"
      ></path>
    </symbol>
    <symbol id="icon-arrow-right" viewBox="0 0 51 32">
      <path
        d="M31.926 0v12.77h-31.926v6.385h31.926v12.77l19.155-16.154-19.155-15.771z"
      ></path>
    </symbol>
    <symbol id="icon-menu" viewBox="0 0 32 32">
      <path
        fill="#fff"
        style="fill: var(--color1, #fff)"
        d="M4 9.333h24c0.354 0 0.693-0.14 0.943-0.391s0.391-0.589 0.391-0.943-0.14-0.693-0.391-0.943c-0.25-0.25-0.589-0.391-0.943-0.391h-24c-0.354 0-0.693 0.14-0.943 0.391s-0.391 0.589-0.391 0.943 0.14 0.693 0.391 0.943c0.25 0.25 0.589 0.391 0.943 0.391zM28 14.667h-24c-0.354 0-0.693 0.14-0.943 0.391s-0.391 0.589-0.391 0.943 0.14 0.693 0.391 0.943c0.25 0.25 0.589 0.391 0.943 0.391h24c0.354 0 0.693-0.14 0.943-0.391s0.391-0.589 0.391-0.943-0.14-0.693-0.391-0.943c-0.25-0.25-0.589-0.391-0.943-0.391zM28 22.667h-24c-0.354 0-0.693 0.14-0.943 0.391s-0.391 0.589-0.391 0.943 0.14 0.693 0.391 0.943c0.25 0.25 0.589 0.391 0.943 0.391h24c0.354 0 0.693-0.14 0.943-0.391s0.391-0.589 0.391-0.943-0.14-0.693-0.391-0.943c-0.25-0.25-0.589-0.391-0.943-0.391z"
      ></path>
    </symbol>
    <symbol id="icon-close" viewBox="0 0 32 32">
      <path
        fill="#fff"
        style="fill: var(--color1, #fff)"
        d="M18.8 16l12.6-12.6c0.8-0.8 0.8-2 0-2.8s-2-0.8-2.8 0l-12.6 12.6-12.6-12.6c-0.8-0.8-2-0.8-2.8 0s-0.8 2 0 2.8l12.6 12.6-12.6 12.6c-0.4 0.4-0.6 0.8-0.6 1.4 0 1.2 0.8 2 2 2 0.6 0 1-0.2 1.4-0.6l12.6-12.6 12.6 12.6c0.4 0.4 0.8 0.6 1.4 0.6s1-0.2 1.4-0.6c0.8-0.8 0.8-2 0-2.8l-12.6-12.6z"
      ></path>
    </symbol>
    <symbol id="icon-circle-check" viewBox="0 0 32 32">
      <path
        fill="#f3f3f3"
        style="fill: var(--color2, #f3f3f3)"
        d="M16 32c8.837 0 16-7.163 16-16s-7.163-16-16-16c-8.837 0-16 7.163-16 16s7.163 16 16 16zM21.851 9.989c0.687-0.747 1.833-0.747 2.519 0 0.649 0.706 0.649 1.822 0 2.528l-9.778 10.637c-0.687 0.747-1.832 0.747-2.519 0l-4.444-4.835c-0.649-0.706-0.649-1.822 0-2.528 0.687-0.747 1.832-0.747 2.519 0l3.185 3.465 8.518-9.267z"
      ></path>
    </symbol>
    <symbol
      id="icon-check"
      viewBox="0 0 24 24"
      fill="white"
    >
      <path
        id="primary"
        d="M10,18a1,1,0,0,1-.71-.29l-5-5a1,1,0,0,1,1.42-1.42L10,15.59l8.29-8.3a1,1,0,1,1,1.42,1.42l-9,9A1,1,0,0,1,10,18Z"
      ></path>
    </symbol>
    <symbol id="icon-spark" viewBox="0 0 32 32">
      <path
        fill="#fff"
        style="fill: var(--color1, #fff)"
        d="M16 0l-3.378 10.311c-0.173 0.536-0.47 1.022-0.868 1.42s-0.884 0.696-1.42 0.869l-10.334 3.399 10.311 3.378c0.536 0.173 1.022 0.471 1.42 0.868s0.696 0.884 0.869 1.42l3.399 10.334 3.378-10.311c0.173-0.535 0.471-1.022 0.868-1.42s0.884-0.696 1.42-0.869l10.334-3.399-10.311-3.378c-0.535-0.173-1.022-0.47-1.42-0.868s-0.696-0.884-0.869-1.42l-3.399-10.334z"
      ></path>
    </symbol>
  </defs>
</svg>

