<svg aria-hidden="true" style="position: absolute; width: 0; height: 0; overflow: hidden;" version="1.1" xmlns="http://www.w3.org/2000/svg" xmlns:xlink="http://www.w3.org/1999/xlink">
<defs>
<symbol id="icon-arrow-left" viewBox="0 0 51 32">
<path d="M19.155 0l-19.155 16.154 19.155 15.771v-12.77h31.926v-6.385h-31.926v-12.77z"></path>
</symbol>
<symbol id="icon-arrow-right" viewBox="0 0 51 32">
<path d="M31.926 0v12.77h-31.926v6.385h31.926v12.77l19.155-16.154-19.155-15.771z"></path>
</symbol>
<symbol id="icon-menu" viewBox="0 0 32 32">
<path fill="#fff" style="fill: var(--color1, #fff)" d="M4 9.333h24c0.354 0 0.693-0.14 0.943-0.391s0.391-0.589 0.391-0.943-0.14-0.693-0.391-0.943c-0.25-0.25-0.589-0.391-0.943-0.391h-24c-0.354 0-0.693 0.14-0.943 0.391s-0.391 0.589-0.391 0.943 0.14 0.693 0.391 0.943c0.25 0.25 0.589 0.391 0.943 0.391zM28 14.667h-24c-0.354 0-0.693 0.14-0.943 0.391s-0.391 0.589-0.391 0.943 0.14 0.693 0.391 0.943c0.25 0.25 0.589 0.391 0.943 0.391h24c0.354 0 0.693-0.14 0.943-0.391s0.391-0.589 0.391-0.943-0.14-0.693-0.391-0.943c-0.25-0.25-0.589-0.391-0.943-0.391zM28 22.667h-24c-0.354 0-0.693 0.14-0.943 0.391s-0.391 0.589-0.391 0.943 0.14 0.693 0.391 0.943c0.25 0.25 0.589 0.391 0.943 0.391h24c0.354 0 0.693-0.14 0.943-0.391s0.391-0.589 0.391-0.943-0.14-0.693-0.391-0.943c-0.25-0.25-0.589-0.391-0.943-0.391z"></path>
</symbol>
<symbol id="icon-close" viewBox="0 0 32 32">
<path fill="#fff" style="fill: var(--color1, #fff)" d="M18.8 16l12.6-12.6c0.8-0.8 0.8-2 0-2.8s-2-0.8-2.8 0l-12.6 12.6-12.6-12.6c-0.8-0.8-2-0.8-2.8 0s-0.8 2 0 2.8l12.6 12.6-12.6 12.6c-0.4 0.4-0.6 0.8-0.6 1.4 0 1.2 0.8 2 2 2 0.6 0 1-0.2 1.4-0.6l12.6-12.6 12.6 12.6c0.4 0.4 0.8 0.6 1.4 0.6s1-0.2 1.4-0.6c0.8-0.8 0.8-2 0-2.8l-12.6-12.6z"></path>
</symbol>
<symbol id="icon-circle-check" viewBox="0 0 32 32">
<path fill="#f3f3f3" style="fill: var(--color2, #f3f3f3)" d="M16 32c8.837 0 16-7.163 16-16s-7.163-16-16-16c-8.837 0-16 7.163-16 16s7.163 16 16 16zM21.851 9.989c0.687-0.747 1.833-0.747 2.519 0 0.649 0.706 0.649 1.822 0 2.528l-9.778 10.637c-0.687 0.747-1.832 0.747-2.519 0l-4.444-4.835c-0.649-0.706-0.649-1.822 0-2.528 0.687-0.747 1.832-0.747 2.519 0l3.185 3.465 8.518-9.267z"></path>
</symbol>
<symbol id="icon-spark" viewBox="0 0 32 32">
<path fill="#fff" style="fill: var(--color1, #fff)" d="M16 0l-3.378 10.311c-0.173 0.536-0.47 1.022-0.868 1.42s-0.884 0.696-1.42 0.869l-10.334 3.399 10.311 3.378c0.536 0.173 1.022 0.471 1.42 0.868s0.696 0.884 0.869 1.42l3.399 10.334 3.378-10.311c0.173-0.535 0.471-1.022 0.868-1.42s0.884-0.696 1.42-0.869l10.334-3.399-10.311-3.378c-0.535-0.173-1.022-0.47-1.42-0.868s-0.696-0.884-0.869-1.42l-3.399-10.334z"></path>
</symbol>
</defs>
</svg>
